<svg height='100px' width='100px'  fill="#FF8400" xmlns="http://www.w3.org/2000/svg" viewBox="0 0 512 512" x="0px" y="0px"><defs><style>.cls-1{fill:none;}.cls-1,.cls-2{stroke:#FF8400;stroke-linecap:round;stroke-linejoin:round;stroke-width:20px;}</style></defs><title>Rolling Eyes-Emoji-Emotion-Face-Expression-Feeling</title><path class="cls-1" d="M132.73,75.14a123,123,0,0,1,16.68-8.74c-5.58-28.65-19.75-55.57-54-56C59.4,10,13,46.81,18.51,86.21c4.61,33.18,31.94,47.86,60.27,53.63Q83.26,131,88,123.13"></path><path class="cls-1" d="M255,466.37c124.26,0,158.14-64.2,127.65-124C346.46,271.33,255,272.58,255,272.58s-91.42-1.25-127.64,69.79C96.9,402.17,130.78,466.37,255,466.37Z"></path><path class="cls-1" d="M379.27,75.14a123,123,0,0,0-16.68-8.74c5.58-28.65,19.75-55.57,54-56,36-.43,82.33,36.38,76.86,75.78-4.61,33.18-31.94,47.86-60.27,53.63q-4.49-8.88-9.17-16.71"></path><path class="cls-1" d="M379.28,75.13c-28.64-18-66.74-24.67-123.28-24.67s-94.64,6.69-123.28,24.67"></path><path class="cls-1" d="M424.1,123.21c22.07,36.81,39.61,90.31,64.12,166.42C538.1,444.52,414.73,501,256,501S-26.1,444.52,23.78,289.63C48.29,213.52,65.83,160,87.9,123.21"></path><line class="cls-1" x1="214.6" y1="379.27" x2="298.67" y2="379.27"></line><line class="cls-1" x1="256.77" y1="342.6" x2="256.77" y2="377.74"></line><circle class="cls-1" cx="164.83" cy="255.56" r="36.64" transform="translate(-83.67 80.27) rotate(-21.98)"></circle><circle class="cls-2" cx="164.61" cy="232.57" r="10.24"></circle><circle class="cls-1" cx="347.16" cy="255.56" r="36.64" transform="translate(-79.02 320.33) rotate(-45)"></circle><path class="cls-2" d="M337.15,232.57a10.24,10.24,0,1,0,10.23-10.24A10.23,10.23,0,0,0,337.15,232.57Z"></path><path class="cls-2" d="M290.06,314.45c0,11.76-33.29,28.15-33.29,28.15s-33.29-16.39-33.29-28.15,14.91-13.17,33.29-13.17S290.06,302.69,290.06,314.45Z"></path></svg>